<?xml version="1.0" standalone="no"?>
<!DOCTYPE svg PUBLIC "-//W3C//DTD SVG 20010904//EN"
 "http://www.w3.org/TR/2001/REC-SVG-20010904/DTD/svg10.dtd">
<svg version="1.0" xmlns="http://www.w3.org/2000/svg"
 width="184.000000pt" height="273.000000pt" viewBox="0 0 184.000000 273.000000"
 preserveAspectRatio="xMidYMid meet">

<g transform="translate(0.000000,273.000000) scale(0.100000,-0.100000)"
fill="#000000" stroke="none">
<path d="M1221 2482 l-64 -56 -112 2 c-120 2 -166 14 -218 58 -49 41 -57 33
-57 -51 0 -45 6 -90 16 -115 16 -39 18 -40 56 -36 34 4 39 2 34 -12 -3 -9 5
-4 18 12 14 17 24 34 23 40 -1 6 3 10 8 11 6 0 22 9 37 19 28 19 70 14 67 -7
-1 -7 0 -32 1 -57 l2 -45 11 43 c5 23 14 42 18 42 5 0 9 9 9 20 0 26 31 26 55
0 10 -11 22 -17 28 -13 5 3 8 2 5 -3 -3 -5 8 -22 24 -39 17 -16 27 -24 24 -17
-10 17 9 15 24 -3 17 -21 62 -19 82 4 9 11 14 22 11 25 -3 3 -6 47 -7 98 -1
66 -5 99 -17 115 -15 22 -15 22 -78 -35z"/>
<path d="M1270 2241 c0 -6 5 -13 10 -16 6 -3 10 1 10 9 0 9 -4 16 -10 16 -5 0
-10 -4 -10 -9z"/>
<path d="M785 2191 c-6 -11 13 -26 22 -17 4 3 1 6 -6 6 -7 0 -9 5 -6 10 3 6 4
10 1 10 -3 0 -7 -4 -11 -9z"/>
<path d="M1153 2114 c-42 -25 -57 -42 -28 -30 8 3 15 3 15 0 0 -2 -11 -9 -25
-14 -14 -5 -25 -16 -25 -25 0 -20 14 -19 48 2 15 9 28 17 29 18 4 2 34 75 31
75 -2 0 -22 -12 -45 -26z"/>
<path d="M885 2112 c2 -9 4 -24 4 -33 1 -16 27 -32 69 -44 32 -9 29 23 -3 35
-14 5 -25 12 -25 15 0 4 6 3 13 0 17 -9 -24 24 -45 36 -12 7 -15 5 -13 -9z"/>
<path d="M1386 2073 c-4 -5 -13 -8 -18 -8 -6 0 -12 -6 -14 -13 -1 -7 0 -8 3
-2 2 5 8 8 13 5 4 -3 13 2 20 10 13 15 9 21 -4 8z"/>
<path d="M710 2063 c8 -3 19 -11 23 -17 6 -7 7 -6 4 4 -2 8 -12 16 -23 17 -13
2 -15 1 -4 -4z"/>
<path d="M1246 2015 c-4 -14 -11 -25 -16 -25 -6 0 -10 -9 -10 -20 0 -14 -7
-20 -22 -20 -26 0 -79 -47 -72 -64 5 -14 -31 -106 -42 -106 -4 0 -4 21 0 48 7
56 -7 155 -23 160 -6 2 -11 11 -11 20 -1 16 -2 16 -14 0 -9 -13 -16 -14 -24
-6 -6 6 -14 9 -17 7 -2 -3 -8 -56 -11 -118 -7 -110 -8 -112 -23 -85 -8 16 -17
47 -20 69 -5 31 -14 44 -41 63 -19 13 -53 40 -74 60 -22 20 -37 31 -32 25 4
-8 2 -13 -6 -13 -7 0 2 -10 20 -21 17 -12 32 -22 32 -23 0 -6 -73 4 -79 10 -3
4 4 4 17 1 12 -3 22 -1 22 4 0 9 -38 14 -69 9 -13 -2 -13 0 0 16 9 11 2 9 -19
-6 -28 -21 -30 -25 -15 -31 10 -4 22 -3 27 2 6 5 15 9 20 9 6 0 5 -4 -2 -9
-10 -6 -5 -10 16 -14 21 -4 41 -22 68 -59 21 -29 39 -55 39 -58 0 -3 4 -11 8
-17 5 -7 4 -13 0 -13 -5 0 -15 6 -22 13 -8 6 2 -10 20 -37 29 -41 42 -51 81
-61 26 -6 55 -18 64 -26 16 -13 16 -12 0 14 -10 15 -34 35 -53 43 -47 23 -36
27 21 8 26 -9 56 -14 66 -11 17 4 20 0 20 -25 l0 -30 41 37 c23 20 59 45 81
55 22 10 35 19 28 22 -6 2 11 12 38 21 38 14 57 29 77 59 l28 41 -28 -21 c-36
-29 -54 -28 -28 1 20 22 47 87 39 94 -2 3 -7 -5 -11 -16 -3 -12 -11 -19 -16
-16 -5 4 -9 0 -9 -7 -1 -7 -7 2 -15 20 -14 32 -30 46 -18 15 5 -11 3 -14 -6
-9 -7 5 -11 17 -8 27 3 11 2 19 -3 19 -4 0 -11 -11 -14 -25z m14 -35 c0 -5 -4
-10 -10 -10 -5 0 -10 5 -10 10 0 6 5 10 10 10 6 0 10 -4 10 -10z"/>
<path d="M1416 1943 c1 -3 -4 -20 -12 -38 -18 -43 -18 -45 4 -45 11 0 13 -3 6
-8 -8 -5 -7 -38 5 -124 9 -64 19 -120 24 -124 4 -4 7 0 7 9 0 13 9 17 34 17
19 0 37 -6 39 -12 8 -19 8 53 0 80 -4 18 -8 21 -15 10 -7 -9 -8 -7 -3 8 5 19
-66 210 -84 225 -4 4 -7 4 -5 2z"/>
<path d="M775 1801 c-3 -5 -1 -12 5 -16 5 -3 10 1 10 9 0 18 -6 21 -15 7z"/>
<path d="M757 1739 c-8 -19 -30 -51 -49 -72 -33 -34 -40 -37 -94 -38 -75 -1
-121 -17 -54 -19 87 -3 90 -14 14 -44 -110 -44 -152 -72 -175 -119 -46 -92
-69 -97 -129 -29 -56 63 -78 75 -48 25 13 -21 30 -51 39 -68 25 -50 59 -46
119 16 28 29 53 49 57 46 3 -4 1 -12 -4 -19 -26 -33 -45 -120 -50 -225 -3 -61
-9 -116 -13 -123 -12 -20 -59 1 -114 51 -57 52 -67 57 -85 36 -8 -11 -6 -13
11 -13 18 1 30 -13 58 -68 41 -82 94 -142 133 -151 35 -9 114 12 137 37 17 19
17 21 -2 66 -16 36 -19 53 -12 81 9 36 19 42 85 56 32 6 114 72 140 112 10 15
29 57 40 92 21 62 21 66 5 111 -11 32 -16 70 -14 123 3 69 11 88 20 45 2 -12
7 -15 16 -9 12 7 12 12 1 29 -8 12 -20 23 -29 25 -9 2 0 11 25 25 22 13 29 20
16 16 -13 -3 -21 -2 -18 3 3 5 2 15 -3 23 -6 10 -12 4 -23 -21z m-316 -742
c-14 -35 -52 -50 -88 -35 l-28 11 32 7 c42 9 58 23 74 63 14 32 14 32 17 6 2
-14 -2 -37 -7 -52z"/>
<path d="M792 1600 c0 -19 2 -27 5 -17 2 9 2 25 0 35 -3 9 -5 1 -5 -18z"/>
<path d="M836 1138 c-3 -13 -5 -32 -5 -43 1 -11 5 -2 10 19 10 42 6 62 -5 24z"/>
<path d="M1162 1075 c0 -16 2 -22 5 -12 2 9 2 23 0 30 -3 6 -5 -1 -5 -18z"/>
<path d="M871 1034 c0 -11 3 -14 6 -6 3 7 2 16 -1 19 -3 4 -6 -2 -5 -13z"/>
<path d="M861 1008 c-1 -4 17 -53 40 -109 31 -79 39 -111 34 -138 -4 -29 3
-54 40 -131 25 -52 45 -102 45 -110 0 -9 -11 -32 -25 -52 -30 -45 -30 -44 -2
-52 l22 -6 -21 -18 c-31 -25 -49 -84 -30 -97 7 -6 16 -19 19 -30 4 -16 5 -16
6 -3 1 20 65 53 82 42 16 -10 149 -22 149 -13 0 16 46 18 58 2 11 -16 12 -16
12 0 0 10 9 21 21 25 20 8 19 10 -15 38 -79 65 -91 72 -108 63 -24 -13 -41 23
-35 70 16 111 52 251 77 300 36 73 80 181 73 181 -3 0 0 7 7 15 9 10 9 15 1
15 -6 0 -11 -4 -11 -10 0 -31 -17 -60 -35 -60 -8 0 -15 -9 -15 -20 0 -11 -4
-20 -10 -20 -5 0 -7 -7 -4 -15 13 -32 -12 -13 -28 23 -10 20 -16 27 -14 15 3
-15 0 -20 -10 -16 -7 2 -11 10 -8 16 2 7 -2 29 -10 51 l-13 39 -7 -34 c-4 -19
-8 -44 -9 -56 -1 -11 -5 -19 -8 -17 -4 2 -12 -17 -19 -41 -7 -25 -17 -45 -21
-45 -5 0 -10 33 -11 73 -1 40 -3 55 -5 35 -5 -47 -23 -50 -24 -5 -1 17 -3 24
-6 15 -3 -13 -15 -18 -44 -18 -36 0 -39 2 -39 28 0 18 -3 23 -9 14 -6 -10 -10
-8 -14 8 -6 24 -28 23 -35 -1 -3 -11 -1 -11 5 -1 11 15 58 -80 50 -101 -3 -6
-6 -2 -6 11 -1 23 -21 32 -21 10 0 -7 -5 -5 -11 5 -6 10 -9 27 -6 38 3 10 1
16 -4 13 -5 -3 -18 14 -28 38 -11 24 -20 40 -20 36z m303 -114 c3 -8 2 -12 -4
-9 -6 3 -10 10 -10 16 0 14 7 11 14 -7z"/>
<path d="M1170 975 c0 -5 5 -17 10 -25 5 -8 10 -10 10 -5 0 6 -5 17 -10 25 -5
8 -10 11 -10 5z"/>
</g>
</svg>
